<?xml version="1.0" encoding="utf-8"?>
<!-- Generator: Adobe Illustrator 23.0.2, SVG Export Plug-In . SVG Version: 6.00 Build 0)  -->
<svg version="1.1" xmlns="http://www.w3.org/2000/svg" xmlns:xlink="http://www.w3.org/1999/xlink" x="0px" y="0px"
	 viewBox="0 0 2101 2048" style="enable-background:new 0 0 2101 2048;" xml:space="preserve">
<style type="text/css">
	.st0{fill:#470137;}
	.st1{fill:#FF61F6;}
</style>
<g id="Layer_3_xA0_Image_1_">
	<path class="st0" d="M2101.5,344c0,453.3,0,906.7,0,1360c-0.8,8.2-1.3,16.3-2.5,24.4c-5.7,40.5-17.4,79.2-35.9,115.6
		c-20.3,40-46.8,75.5-80.1,106c-52.3,48-113.1,78.7-182.6,92.2c-10.3,2-20.6,3.8-30.9,5.7c-478.7,0-957.3,0-1436,0
		c-1.4-0.6-2.9-1.5-4.3-1.6c-45.1-5.1-87.8-18.2-128-39.2c-38.4-20-72.3-45.9-101.8-77.7c-24-25.8-43.8-54.5-59.6-85.8
		c-17-33.8-28.6-69.4-34.4-106.9c-1.6-10.3-3.9-20.6-5.8-30.8c0-454,0-908,0-1362c2-10.9,4.3-21.8,6-32.8
		c5.8-37.5,17.6-73.1,34.7-106.8c20.3-40.1,46.9-75.6,80.3-106.1c26-23.8,54.5-43.7,85.9-59.4C243,20.7,281.6,8.8,322.2,3.6
		c7.8-1,15.5-2.4,23.3-3.6c470.7,0,941.3,0,1412,0c1.2,0.5,2.3,1.3,3.5,1.4c13.5,1.8,27.2,2.6,40.4,5.3
		c79.2,16.2,146.8,53.2,202,112.6c29.5,31.8,52.8,67.5,69.5,107.4c15.1,36.1,25.7,73.3,27.1,112.7C2100.1,341,2101,342.5,2101.5,344
		z"/>
	<g>
		<path class="st1" d="M1782.3,1454.7c-1.5,9.3-8.1,13.1-16.1,16.3c-53.8,21.5-109.4,35.9-166.9,43.4c-48.3,6.3-96.8,10.3-145.2,5.2
			c-92.9-9.7-176.6-40-239.7-113.4c-34.9-40.6-56.6-87.6-67.5-139.7c-9.3-44.9-12.1-90.6-7.6-136.1c9-90.4,47.5-166.8,114.8-228
			c55.7-50.7,121.8-79.5,195.9-91.2c42.4-6.7,84.8-8.4,127.5-4.7c1.3,0.1,2.6,0,5.6,0c0-4.3,0-8.4,0-12.5c0-83.6,0-167.1,0.1-250.7
			c0-6.5-1.8-14.2,7-17.4c60.1,0,120.2,0,180.3,0c6.7,4,6.6,10.4,6.6,17.1c-0.1,277.3-0.2,554.6,0.2,831.9c0,25.3,3.3,50.6,5,75.8
			C1782.3,1452.1,1782.3,1453.4,1782.3,1454.7z M1583.3,972.2c-41.7-9.2-81.7-8.4-120.5,5.4c-58.9,21.1-103.2,58.6-119.6,121.2
			c-13.7,52.4-11,105.1,9.7,155.8c15.8,38.7,42.5,67.5,81.7,83.6c44.1,18.2,90,17.1,136.3,12.6c9.5-0.9,12.6-4.9,12.6-14.9
			c-0.4-117.5-0.3-235-0.3-352.4C1583.3,980,1583.3,976.4,1583.3,972.2z"/>
		<path class="st1" d="M726.9,938.4c17.7-34.8,34.2-68.6,51.8-101.8c37.9-71.5,77-142.4,114.1-214.4c8.3-16.2,17.6-21.2,35.1-20.8
			c54.8,1.2,109.7,0.3,164.5,0.6c4.7,0,10.9,1.7,13.4,4.9c1.6,2.2-1.3,8.9-3.7,12.8c-82.7,136.8-165.5,273.5-248.5,410.1
			c-4.5,7.4-4.5,12.3,0.1,19.8c87.7,143.3,175.1,286.8,262.3,430.4c3.7,6.1,5.1,13.6,7.5,20.5c-6.8,1-13.5,2.8-20.3,2.9
			c-59.4,0.2-118.8,0.1-178.3,0.1c-5.2,0-10.4-0.4-15.7-0.3c-13.2,0.2-21-6.2-27.3-18C826.6,1381,770.7,1277,715,1173
			c-0.7-1.4-1.7-2.7-3.2-5c-1.7,2.9-3.2,5.2-4.5,7.5C650.5,1282,593.7,1388.5,537.1,1495c-3.5,6.5-8.2,9.7-15.5,9.7
			c-17.3,0-34.6,0.4-51.9,0.5c-47,0.1-94,0-141,0c-2.5,0-5-0.3-9.9-0.6c2.1-6.4,2.8-12.3,5.6-16.8c79.6-131,159.5-261.9,239.3-392.9
			c6.6-10.8,12.8-22,20-32.4c4.2-6,3.6-10.3,0-16.3c-84.6-142.8-169-285.7-253.4-428.7c-6.8-11.5-4.9-16.2,7.5-16.2
			c66.3,0,132.5,0.4,198.8,0.5c8.8,0,14.5,4.6,17.6,11.7c44,100.3,104.2,192,154.4,288.9C714.5,913.9,720.3,925.4,726.9,938.4z"/>
	</g>
</g>
<g id="Layer_3">
</g>
</svg>
